<svg width="22" height="20" viewBox="0 0 22 20" fill="none" xmlns="http://www.w3.org/2000/svg">
<g clip-path="url(#clip0_91_2113)">
<path d="M21.4887 15.1015L17.923 18.8428C17.8455 18.9241 17.7517 18.9889 17.6475 19.0331C17.5433 19.0774 17.4309 19.1003 17.3173 19.1002H0.413956C0.333301 19.1002 0.254404 19.0771 0.186958 19.0339C0.119512 18.9906 0.0664553 18.929 0.0343068 18.8566C0.00215835 18.7843 -0.00768149 18.7043 0.00599628 18.6265C0.0196741 18.5487 0.0562736 18.4766 0.111298 18.4189L3.67972 14.6776C3.75702 14.5965 3.85051 14.5319 3.95439 14.4876C4.05828 14.4433 4.17034 14.4204 4.28365 14.4202H21.186C21.2667 14.4202 21.3456 14.4432 21.413 14.4865C21.4805 14.5298 21.5335 14.5914 21.5657 14.6638C21.5978 14.7361 21.6077 14.8161 21.594 14.8939C21.5803 14.9716 21.5437 15.0438 21.4887 15.1015ZM17.923 7.56759C17.8455 7.48632 17.7517 7.42153 17.6475 7.37724C17.5433 7.33296 17.4309 7.31014 17.3173 7.31019H0.413956C0.333301 7.3102 0.254404 7.33325 0.186958 7.37652C0.119512 7.41979 0.0664553 7.4814 0.0343068 7.55376C0.00215835 7.62613 -0.00768149 7.70611 0.00599628 7.78388C0.0196741 7.86164 0.0562736 7.9338 0.111298 7.99149L3.67972 11.7328C3.75702 11.8138 3.85051 11.8785 3.95439 11.9228C4.05828 11.9671 4.17034 11.99 4.28365 11.9902H21.186C21.2667 11.9902 21.3456 11.9671 21.413 11.9239C21.4805 11.8806 21.5335 11.819 21.5657 11.7466C21.5978 11.6743 21.6077 11.5943 21.594 11.5165C21.5803 11.4387 21.5437 11.3666 21.4887 11.3089L17.923 7.56759ZM0.413956 4.88019H17.3173C17.4309 4.88025 17.5433 4.85743 17.6475 4.81315C17.7517 4.76886 17.8455 4.70407 17.923 4.62279L21.4887 0.881495C21.5437 0.823803 21.5803 0.751641 21.594 0.673877C21.6077 0.596113 21.5978 0.516133 21.5657 0.443765C21.5335 0.371397 21.4805 0.309793 21.413 0.266522C21.3456 0.223251 21.2667 0.200198 21.186 0.200195L4.28365 0.200195C4.17034 0.200384 4.05828 0.223326 3.95439 0.267601C3.85051 0.311877 3.75702 0.376542 3.67972 0.457595L0.112218 4.19889C0.0572466 4.25653 0.0206632 4.32861 0.00695444 4.40629C-0.00675436 4.48397 0.0030074 4.56388 0.0350426 4.63621C0.0670777 4.70855 0.119994 4.77016 0.187301 4.8135C0.254608 4.85684 0.33338 4.88002 0.413956 4.88019Z" fill="url(#paint0_linear_91_2113)"/>
</g>
<defs>
<linearGradient id="paint0_linear_91_2113" x1="1.82329" y1="19.5506" x2="19.1161" y2="-0.37485" gradientUnits="userSpaceOnUse">
<stop offset="0.08" stop-color="#9945FF"/>
<stop offset="0.3" stop-color="#8752F3"/>
<stop offset="0.5" stop-color="#5497D5"/>
<stop offset="0.6" stop-color="#43B4CA"/>
<stop offset="0.72" stop-color="#28E0B9"/>
<stop offset="0.97" stop-color="#19FB9B"/>
</linearGradient>
<clipPath id="clip0_91_2113">
<rect width="21.6" height="18.9" fill="white" transform="translate(0 0.200195)"/>
</clipPath>
</defs>
</svg>
