<svg width="75" height="54" viewBox="0 0 75 54" fill="none" xmlns="http://www.w3.org/2000/svg">
<g clip-path="url(#clip0_44_4474)">
<path d="M21.4887 31.1015L17.923 34.8428C17.8455 34.9241 17.7517 34.9889 17.6475 35.0331C17.5433 35.0774 17.4309 35.1003 17.3173 35.1002H0.413956C0.333301 35.1002 0.254404 35.0771 0.186958 35.0339C0.119512 34.9906 0.0664553 34.929 0.0343068 34.8566C0.00215835 34.7843 -0.00768149 34.7043 0.00599628 34.6265C0.0196741 34.5487 0.0562736 34.4766 0.111298 34.4189L3.67972 30.6776C3.75702 30.5965 3.85051 30.5319 3.95439 30.4876C4.05828 30.4433 4.17034 30.4204 4.28365 30.4202H21.186C21.2667 30.4202 21.3456 30.4432 21.413 30.4865C21.4805 30.5298 21.5335 30.5914 21.5657 30.6638C21.5978 30.7361 21.6077 30.8161 21.594 30.8939C21.5803 30.9716 21.5437 31.0438 21.4887 31.1015V31.1015ZM17.923 23.5676C17.8455 23.4863 17.7517 23.4215 17.6475 23.3772C17.5433 23.333 17.4309 23.3101 17.3173 23.3102H0.413956C0.333301 23.3102 0.254404 23.3332 0.186958 23.3765C0.119512 23.4198 0.0664553 23.4814 0.0343068 23.5538C0.00215835 23.6261 -0.00768149 23.7061 0.00599628 23.7839C0.0196741 23.8616 0.0562736 23.9338 0.111298 23.9915L3.67972 27.7328C3.75702 27.8138 3.85051 27.8785 3.95439 27.9228C4.05828 27.9671 4.17034 27.99 4.28365 27.9902H21.186C21.2667 27.9902 21.3456 27.9671 21.413 27.9239C21.4805 27.8806 21.5335 27.819 21.5657 27.7466C21.5978 27.6743 21.6077 27.5943 21.594 27.5165C21.5803 27.4387 21.5437 27.3666 21.4887 27.3089L17.923 23.5676ZM0.413956 20.8802H17.3173C17.4309 20.8803 17.5433 20.8574 17.6475 20.8131C17.7517 20.7689 17.8455 20.7041 17.923 20.6228L21.4887 16.8815C21.5437 16.8238 21.5803 16.7516 21.594 16.6739C21.6077 16.5961 21.5978 16.5161 21.5657 16.4438C21.5335 16.3714 21.4805 16.3098 21.413 16.2665C21.3456 16.2233 21.2667 16.2002 21.186 16.2002H4.28365C4.17034 16.2004 4.05828 16.2233 3.95439 16.2676C3.85051 16.3119 3.75702 16.3765 3.67972 16.4576L0.112218 20.1989C0.0572466 20.2565 0.0206632 20.3286 0.00695444 20.4063C-0.00675436 20.484 0.0030074 20.5639 0.0350426 20.6362C0.0670777 20.7085 0.119994 20.7702 0.187301 20.8135C0.254608 20.8568 0.33338 20.88 0.413956 20.8802V20.8802Z" fill="url(#paint0_linear_44_4474)"/>
</g>
<path d="M33.966 35.1002V27.5402H38.367C42.174 27.5402 45.279 25.9742 45.279 21.8702C45.279 17.8742 42.309 16.2002 38.367 16.2002H30.429V35.1002H33.966ZM33.966 19.1972H38.367C40.689 19.1972 41.634 20.2232 41.634 21.8702C41.634 23.5172 40.635 24.5432 38.367 24.5432H33.966V19.1972Z" fill="black"/>
<path d="M50.9182 35.5862C53.1862 35.5862 54.5362 34.5872 55.2382 33.2912C55.1572 33.7232 55.1032 34.1282 55.1032 34.5602V35.1002H58.1542V27.3512C58.1542 23.6522 56.5342 21.4922 52.5112 21.4922C49.1092 21.4922 46.8682 23.4362 46.6522 26.1902H50.0542C50.1892 24.8132 51.1612 23.9492 52.7002 23.9492C54.1042 23.9492 54.8602 24.7592 54.8602 25.6772C54.8602 26.3252 54.4822 26.7032 53.4022 26.8652L51.5122 27.1082C48.6772 27.4862 46.3822 28.5122 46.3822 31.4822C46.3822 34.0742 48.6232 35.5862 50.9182 35.5862ZM51.8092 33.1562C50.6482 33.1562 49.7302 32.5082 49.7302 31.3472C49.7302 30.1592 50.7832 29.6192 52.3222 29.3492L53.4022 29.1332C54.2122 28.9982 54.6712 28.8362 54.9682 28.5662V29.9972C54.9682 31.8602 53.5642 33.1562 51.8092 33.1562Z" fill="black"/>
<path d="M66.0531 40.6082L72.9921 21.9242H69.5361L66.8631 30.4292C66.7281 30.8882 66.5661 31.3742 66.4581 31.9952C66.3231 31.3742 66.1881 30.8882 66.0261 30.4292L63.2181 21.9242H59.5191L64.6761 34.9922L62.5431 40.6082H66.0531Z" fill="black"/>
<defs>
<linearGradient id="paint0_linear_44_4474" x1="1.82329" y1="35.5506" x2="19.1161" y2="15.6252" gradientUnits="userSpaceOnUse">
<stop offset="0.08" stop-color="#9945FF"/>
<stop offset="0.3" stop-color="#8752F3"/>
<stop offset="0.5" stop-color="#5497D5"/>
<stop offset="0.6" stop-color="#43B4CA"/>
<stop offset="0.72" stop-color="#28E0B9"/>
<stop offset="0.97" stop-color="#19FB9B"/>
</linearGradient>
<clipPath id="clip0_44_4474">
<rect width="21.6" height="18.9" fill="white" transform="translate(0 16.2002)"/>
</clipPath>
</defs>
</svg>
