<svg width="24" height="24" viewBox="0 0 24 24" fill="none" xmlns="http://www.w3.org/2000/svg">
<path d="M12 24C18.6274 24 24 18.6274 24 12C24 5.37258 18.6274 0 12 0C5.37258 0 0 5.37258 0 12C0 18.6274 5.37258 24 12 24Z" fill="#2775CA"/>
<path d="M9.8 20.2996C9.8 20.5996 9.6 20.6996 9.3 20.6996C5.6 19.4996 3 16.0996 3 12.0996C3 8.09965 5.6 4.69965 9.3 3.49965C9.6 3.39965 9.8 3.59965 9.8 3.89965V4.59965C9.8 4.79965 9.7 4.99965 9.5 5.09965C6.6 6.19965 4.6 8.89965 4.6 12.0996C4.6 15.2996 6.7 18.0996 9.5 19.0996C9.7 19.1996 9.8 19.3996 9.8 19.5996V20.2996Z" fill="white"/>
<path d="M12.7999 17.8001C12.7999 18.0001 12.5999 18.2001 12.3999 18.2001H11.5999C11.3999 18.2001 11.1999 18.0001 11.1999 17.8001V16.6001C9.59988 16.4001 8.79988 15.5001 8.49988 14.2001C8.49988 14.0001 8.59988 13.8001 8.79988 13.8001H9.69988C9.89988 13.8001 9.99988 13.9001 10.0999 14.1001C10.2999 14.8001 10.6999 15.4001 11.9999 15.4001C12.9999 15.4001 13.6999 14.9001 13.6999 14.1001C13.6999 13.3001 13.2999 13.0001 11.8999 12.8001C9.79988 12.5001 8.79988 11.9001 8.79988 10.2001C8.79988 8.9001 9.79988 7.9001 11.1999 7.7001V6.5001C11.1999 6.3001 11.3999 6.1001 11.5999 6.1001H12.3999C12.5999 6.1001 12.7999 6.3001 12.7999 6.5001V7.7001C13.9999 7.9001 14.7999 8.6001 14.9999 9.7001C14.9999 9.9001 14.8999 10.1001 14.6999 10.1001H13.8999C13.6999 10.1001 13.5999 10.0001 13.4999 9.8001C13.2999 9.1001 12.7999 8.8001 11.8999 8.8001C10.8999 8.8001 10.3999 9.3001 10.3999 10.0001C10.3999 10.7001 10.6999 11.1001 12.1999 11.3001C14.2999 11.6001 15.2999 12.2001 15.2999 13.9001C15.2999 15.2001 14.2999 16.3001 12.7999 16.6001V17.8001Z" fill="white"/>
<path d="M14.7 20.7005C14.4 20.8005 14.2 20.6005 14.2 20.3005V19.6005C14.2 19.4005 14.3 19.2005 14.5 19.1005C17.4 18.0005 19.4 15.3005 19.4 12.1005C19.4 8.90049 17.3 6.10049 14.5 5.10049C14.3 5.00049 14.2 4.80049 14.2 4.60049V3.90049C14.2 3.60049 14.4 3.50049 14.7 3.50049C18.3 4.70049 21 8.10049 21 12.1005C21 16.1005 18.4 19.5005 14.7 20.7005Z" fill="white"/>
</svg>
