<svg width="70" height="70" viewBox="0 0 70 70" fill="none" xmlns="http://www.w3.org/2000/svg">
<circle cx="35" cy="35" r="34.5" fill="#FAFAFA" stroke="#F0F0F0"/>
<path d="M50.3997 41.2223V28.1113C50.3991 27.5365 50.2431 26.9719 49.9472 26.4743C49.6513 25.9767 49.226 25.5634 48.714 25.276L36.9141 18.7205C36.4016 18.4328 35.8202 18.2814 35.2284 18.2814C34.6366 18.2814 34.0552 18.4328 33.5427 18.7205L21.7428 25.276C21.2308 25.5634 20.8055 25.9767 20.5097 26.4743C20.2138 26.9719 20.0577 27.5365 20.0571 28.1113V41.2223C20.0577 41.7971 20.2138 42.3616 20.5097 42.8592C20.8055 43.3569 21.2308 43.7701 21.7428 44.0575L33.5427 50.613C34.0552 50.9007 34.6366 51.0522 35.2284 51.0522C35.8202 51.0522 36.4016 50.9007 36.9141 50.613L48.714 44.0575C49.226 43.7701 49.6513 43.3569 49.9472 42.8592C50.2431 42.3616 50.3991 41.7971 50.3997 41.2223Z" stroke="black" stroke-width="2.2476" stroke-linecap="round" stroke-linejoin="round"/>
<path d="M27.8264 22.0028L32.7158 24.7493C34.2763 25.6259 36.1807 25.6259 37.7412 24.7493L42.6306 22.0028" stroke="black" stroke-width="2.2476" stroke-linecap="round" stroke-linejoin="round"/>
<path d="M29.7502 32.1013L34.8808 37.2318L40.0113 32.1013" stroke="black" stroke-width="2.2476" stroke-linecap="round" stroke-linejoin="round"/>
<path d="M20.0571 34.6666L24.3705 37.0896C26.3917 38.2249 27.6428 40.3627 27.6428 42.6809V46.8516" stroke="black" stroke-width="2.2476" stroke-linecap="round" stroke-linejoin="round"/>
<path d="M50.3996 34.6666L46.0863 37.0896C44.0651 38.2249 42.814 40.3627 42.814 42.6809V46.8516" stroke="black" stroke-width="2.2476" stroke-linecap="round" stroke-linejoin="round"/>
</svg>
