<svg fill="none" height="28" viewBox="0 0 40 28" width="40" xmlns="http://www.w3.org/2000/svg"><path clip-rule="evenodd" d="m11.0255 0c-.3143 0-.6103.147798-.7992.399039l-9.774479 12.999961c-.267629.356-.26763.846-.000001 1.202l9.77448 13c.1889.2512.4849.399.7992.399h27.9745c.5523 0 1-.4477 1-1v-26c0-.552285-.4477-1-1-1zm4.6815 6.29289c.3905-.39052 1.0237-.39052 1.4142 0l6.3787 6.37871 6.3787-6.37871c.3906-.39052 1.0237-.39052 1.4143 0 .3905.39053.3905 1.02369 0 1.41422l-6.3787 6.37869 6.7928 6.7929c.3905.3905.3905 1.0237 0 1.4142s-1.0237.3905-1.4142 0l-6.7929-6.7929-6.7928 6.7929c-.3905.3905-1.0237.3905-1.4142 0-.3906-.3905-.3906-1.0237 0-1.4142l6.7928-6.7929-6.3787-6.37869c-.3905-.39053-.3905-1.02369 0-1.41422z" fill="#2a2a2a" fill-rule="evenodd"/></svg>
