<svg version="1.1" xmlns="http://www.w3.org/2000/svg" xmlns:xlink="http://www.w3.org/1999/xlink" x="0px" y="0px" viewBox="0 0 1000 1000" enable-background="new 0 0 1000 1000" xml:space="preserve">
<g><path d="M346.7,714.6l368.1-368.1c17.9-17.9,17.9-47.1,0-64.9c-17.9-17.9-47.1-17.9-64.9,0l-368,368c-17.9,17.9-17.9,47.1,0,64.9C299.6,732.5,328.9,732.5,346.7,714.6z M468.2,651c6.4,9,7.6,18.5,7.6,23.8c0,6.3-1.5,18.6-11.8,28.9L271,896.5c-10.3,10.3-22.5,11.8-28.9,11.8c-6.3,0-18.6-1.5-28.9-11.8L103.5,786.8c-10.3-10.3-11.8-22.5-11.8-28.9c0-6.4,1.5-18.6,11.8-28.9l192.9-192.9c10.3-10.3,22.5-11.8,28.9-11.8c4.5,0,11.8,0.8,19.3,4.8l58.6-58.6c-48-39.6-119.6-36.9-164.5,7.9L45.7,671.3c-47.7,47.7-47.7,125.5,0,173.2l109.7,109.7c47.7,47.7,125.5,47.7,173.2,0l192.9-192.9c46-46,47.6-120.4,4.6-168.4L468.2,651z M954.2,155.5L844.5,45.8C796.9-1.9,719-1.9,671.3,45.8L478.4,238.7c-44.8,44.8-47.5,116.5-7.9,164.5l58.6-58.6c-4-7.6-4.8-14.9-4.8-19.3c0-6.3,1.5-18.6,11.8-28.9l192.9-192.9c10.3-10.3,22.5-11.8,28.9-11.8c6.3,0,18.6,1.5,28.9,11.8l109.7,109.7c10.3,10.3,11.8,22.5,11.8,28.9c0,6.3-1.5,18.6-11.8,28.9L703.7,464c-10.3,10.3-22.5,11.8-28.9,11.8c-5.3,0-14.8-1.1-23.8-7.6l-58,58c48,43,122.3,41.5,168.4-4.6l192.9-192.9C1001.9,281.1,1001.9,203.1,954.2,155.5z"/></g>
</svg>
